<?xml version="1.0" standalone="no"?>
<!DOCTYPE svg PUBLIC "-//W3C//DTD SVG 20010904//EN"
 "http://www.w3.org/TR/2001/REC-SVG-20010904/DTD/svg10.dtd">
<svg version="1.0" xmlns="http://www.w3.org/2000/svg"
 width="200.000000pt" height="200.000000pt" viewBox="0 0 200.000000 200.000000"
 preserveAspectRatio="xMidYMid meet">
<metadata>
Created by potrace 1.14, written by Peter Selinger 2001-2017
</metadata>
<g transform="translate(0.000000,200.000000) scale(0.100000,-0.100000)"
fill="#000000" stroke="none">
<path d="M797 1843 c-4 -3 -7 -17 -7 -30 0 -18 5 -23 25 -23 21 0 25 5 25 30
0 22 -5 30 -18 30 -10 0 -22 -3 -25 -7z"/>
<path d="M868 1845 c-3 -3 -3 -17 0 -30 3 -18 11 -25 28 -25 20 0 24 5 24 30
0 25 -4 30 -23 30 -13 0 -26 -2 -29 -5z"/>
<path d="M947 1843 c-4 -3 -7 -17 -7 -30 0 -19 5 -23 30 -23 27 0 30 3 30 30
0 25 -4 30 -23 30 -13 0 -27 -3 -30 -7z"/>
<path d="M1027 1843 c-4 -3 -7 -17 -7 -30 0 -19 5 -23 30 -23 27 0 30 3 30 30
0 25 -4 30 -23 30 -13 0 -27 -3 -30 -7z"/>
<path d="M1100 1820 c0 -27 3 -30 30 -30 27 0 30 3 30 30 0 27 -3 30 -30 30
-27 0 -30 -3 -30 -30z"/>
<path d="M1180 1820 c0 -27 3 -30 30 -30 25 0 30 4 30 24 0 16 -7 26 -22 30
-36 9 -38 8 -38 -24z"/>
<path d="M723 1823 c-23 -9 -14 -33 12 -33 18 0 25 5 25 20 0 19 -12 24 -37
13z"/>
<path d="M1270 1809 c0 -14 7 -19 30 -19 17 0 30 4 30 8 0 4 -13 13 -30 19
-27 10 -30 9 -30 -8z"/>
<path d="M658 1793 c7 -3 16 -2 19 1 4 3 -2 6 -13 5 -11 0 -14 -3 -6 -6z"/>
<path d="M813 1773 c-34 -7 -32 -53 2 -53 21 0 25 5 25 30 0 17 -1 29 -2 29
-2 -1 -13 -4 -25 -6z"/>
<path d="M870 1750 c0 -25 4 -30 25 -30 21 0 25 5 25 30 0 25 -4 30 -25 30
-21 0 -25 -5 -25 -30z"/>
<path d="M1123 1773 c-17 -3 -22 -11 -21 -29 2 -19 8 -24 30 -24 24 0 28 4 28
30 0 17 -3 29 -7 29 -5 -1 -18 -4 -30 -6z"/>
<path d="M1187 1773 c-4 -3 -7 -17 -7 -30 0 -19 5 -23 30 -23 27 0 30 3 30 30
0 25 -4 30 -23 30 -13 0 -27 -3 -30 -7z"/>
<path d="M583 1757 c-13 -5 -23 -19 -23 -29 0 -26 53 -21 58 6 5 26 -9 36 -35
23z"/>
<path d="M630 1745 c0 -21 5 -25 30 -25 25 0 30 4 30 25 0 21 -5 25 -30 25
-25 0 -30 -4 -30 -25z"/>
<path d="M710 1745 c0 -20 5 -25 25 -25 20 0 25 5 25 25 0 20 -5 25 -25 25
-20 0 -25 -5 -25 -25z"/>
<path d="M950 1750 c0 -15 7 -20 25 -20 18 0 25 5 25 20 0 15 -7 20 -25 20
-18 0 -25 -5 -25 -20z"/>
<path d="M1020 1755 c0 -14 29 -35 49 -35 6 0 11 11 11 25 0 21 -5 25 -30 25
-20 0 -30 -5 -30 -15z"/>
<path d="M1270 1745 c0 -21 5 -25 30 -25 25 0 30 4 30 25 0 21 -5 25 -30 25
-25 0 -30 -4 -30 -25z"/>
<path d="M1350 1745 c0 -21 5 -25 30 -25 25 0 30 4 30 25 0 21 -5 25 -30 25
-25 0 -30 -4 -30 -25z"/>
<path d="M1430 1735 c0 -8 9 -15 20 -15 11 0 20 2 20 5 0 2 -9 9 -20 15 -16 9
-20 8 -20 -5z"/>
<path d="M630 1670 c0 -28 3 -31 28 -28 21 2 27 8 27 28 0 20 -6 26 -27 28
-25 3 -28 0 -28 -28z"/>
<path d="M710 1680 c0 -17 3 -18 25 -8 14 6 25 15 25 20 0 4 -11 8 -25 8 -18
0 -25 -5 -25 -20z"/>
<path d="M1218 1693 c7 -3 16 -2 19 1 4 3 -2 6 -13 5 -11 0 -14 -3 -6 -6z"/>
<path d="M1277 1693 c-13 -12 -7 -22 23 -37 30 -14 30 -14 30 15 0 24 -4 29
-23 29 -13 0 -27 -3 -30 -7z"/>
<path d="M1350 1670 c0 -27 3 -30 30 -30 27 0 30 3 30 30 0 27 -3 30 -30 30
-27 0 -30 -3 -30 -30z"/>
<path d="M1430 1670 c0 -27 3 -30 30 -30 27 0 30 3 30 30 0 27 -3 30 -30 30
-27 0 -30 -3 -30 -30z"/>
<path d="M480 1660 c0 -27 3 -30 30 -30 27 0 30 3 30 30 0 27 -3 30 -30 30
-27 0 -30 -3 -30 -30z"/>
<path d="M560 1660 c0 -28 3 -30 28 -27 21 3 28 10 30 30 3 24 0 27 -27 27
-28 0 -31 -3 -31 -30z"/>
<path d="M1510 1665 c0 -21 5 -25 32 -25 l31 0 -23 25 c-13 14 -27 25 -32 25
-4 0 -8 -11 -8 -25z"/>
<path d="M430 1645 c-10 -13 -9 -15 9 -15 12 0 21 6 21 15 0 8 -4 15 -9 15 -5
0 -14 -7 -21 -15z"/>
<path d="M1390 1611 c0 -6 5 -13 10 -16 6 -3 10 1 10 9 0 9 -4 16 -10 16 -5 0
-10 -4 -10 -9z"/>
<path d="M1434 1605 c-10 -25 4 -45 31 -45 21 0 25 5 25 30 0 25 -4 30 -25 30
-14 0 -28 -7 -31 -15z"/>
<path d="M1510 1590 c0 -36 9 -38 38 -7 29 31 28 37 -8 37 -27 0 -30 -3 -30
-30z"/>
<path d="M400 1580 c0 -27 3 -30 30 -30 27 0 30 3 30 30 0 27 -3 30 -30 30
-27 0 -30 -3 -30 -30z"/>
<path d="M480 1580 c0 -27 3 -30 30 -30 27 0 30 3 30 30 0 27 -3 30 -30 30
-27 0 -30 -3 -30 -30z"/>
<path d="M560 1590 c0 -20 1 -20 25 -4 14 9 25 18 25 20 0 2 -11 4 -25 4 -18
0 -25 -5 -25 -20z"/>
<path d="M362 1578 c-16 -16 -15 -28 3 -28 8 0 15 9 15 20 0 23 -2 24 -18 8z"/>
<path d="M950 1575 c0 -10 10 -15 30 -15 20 0 30 5 30 15 0 10 -10 15 -30 15
-20 0 -30 -5 -30 -15z"/>
<path d="M1030 1575 c0 -9 9 -15 25 -15 28 0 34 15 9 24 -25 10 -34 7 -34 -9z"/>
<path d="M910 1570 c0 -5 5 -10 10 -10 6 0 10 5 10 10 0 6 -4 10 -10 10 -5 0
-10 -4 -10 -10z"/>
<path d="M886 1518 c-9 -36 -7 -40 17 -36 30 4 39 58 9 58 -12 0 -22 -9 -26
-22z"/>
<path d="M950 1510 c0 -27 3 -30 30 -30 27 0 30 3 30 30 0 27 -3 30 -30 30
-27 0 -30 -3 -30 -30z"/>
<path d="M1030 1511 c0 -28 3 -31 31 -31 27 0 30 3 27 28 -2 21 -9 28 -30 30
-25 3 -28 0 -28 -27z"/>
<path d="M320 1500 c0 -27 3 -30 30 -30 27 0 30 3 30 30 0 27 -3 30 -30 30
-27 0 -30 -3 -30 -30z"/>
<path d="M400 1500 c0 -27 3 -30 30 -30 27 0 30 3 30 30 0 27 -3 30 -30 30
-27 0 -30 -3 -30 -30z"/>
<path d="M480 1508 c0 -20 1 -21 20 -3 11 10 20 20 20 22 0 1 -9 3 -20 3 -14
0 -20 -7 -20 -22z"/>
<path d="M1111 1494 c0 -11 3 -14 6 -6 3 7 2 16 -1 19 -3 4 -6 -2 -5 -13z"/>
<path d="M860 1430 c0 -27 3 -30 30 -30 27 0 30 3 30 30 0 27 -3 30 -30 30
-27 0 -30 -3 -30 -30z"/>
<path d="M947 1453 c-4 -3 -7 -17 -7 -30 0 -19 5 -23 30 -23 27 0 30 3 30 30
0 25 -4 30 -23 30 -13 0 -27 -3 -30 -7z"/>
<path d="M1020 1430 c0 -27 3 -30 30 -30 27 0 30 3 30 30 0 27 -3 30 -30 30
-27 0 -30 -3 -30 -30z"/>
<path d="M1100 1430 c0 -27 3 -30 29 -30 29 0 30 1 20 30 -7 19 -18 30 -30 30
-14 0 -19 -7 -19 -30z"/>
<path d="M262 1425 c-16 -35 -15 -37 11 -33 16 2 23 11 25 31 4 35 -20 37 -36
2z"/>
<path d="M320 1420 c0 -25 4 -30 24 -30 26 0 36 14 28 43 -3 10 -14 17 -28 17
-20 0 -24 -5 -24 -30z"/>
<path d="M400 1420 c0 -16 2 -30 4 -30 3 0 14 14 26 30 l21 30 -25 0 c-22 0
-26 -4 -26 -30z"/>
<path d="M245 1372 c-3 -3 -5 -16 -5 -29 0 -19 5 -23 31 -23 27 0 30 3 27 28
-2 20 -9 27 -25 28 -12 1 -25 -1 -28 -4z"/>
<path d="M828 1360 c-7 -24 -3 -38 8 -28 3 4 4 17 2 30 l-3 23 -7 -25z"/>
<path d="M868 1355 c3 -18 11 -25 28 -25 19 0 24 5 24 25 0 21 -5 25 -29 25
-25 0 -28 -3 -23 -25z"/>
<path d="M942 1353 c4 -37 31 -41 46 -8 16 35 16 35 -19 35 -27 0 -30 -3 -27
-27z"/>
<path d="M1022 1353 c2 -22 9 -29 31 -31 24 -3 27 0 27 27 0 28 -3 31 -31 31
-27 0 -30 -3 -27 -27z"/>
<path d="M1100 1355 c0 -21 5 -25 30 -25 25 0 30 4 30 25 0 21 -5 25 -30 25
-25 0 -30 -4 -30 -25z"/>
<path d="M320 1342 c0 -21 5 -29 18 -29 24 0 42 16 42 38 0 14 -7 19 -30 19
-26 0 -30 -4 -30 -28z"/>
<path d="M800 1291 c-16 -31 -12 -41 15 -41 21 0 25 5 25 30 0 35 -23 41 -40
11z"/>
<path d="M870 1280 c0 -25 4 -30 25 -30 21 0 25 5 25 30 0 25 -4 30 -25 30
-21 0 -25 -5 -25 -30z"/>
<path d="M947 1303 c-3 -5 -1 -17 4 -28 4 -11 8 -15 8 -8 1 6 4 18 7 27 6 16
-11 23 -19 9z"/>
<path d="M1041 1280 c6 -16 17 -30 25 -30 9 0 14 11 14 30 0 25 -4 30 -24 30
-23 0 -24 -2 -15 -30z"/>
<path d="M1105 1300 c-12 -20 6 -50 31 -50 20 0 24 5 24 30 0 25 -4 30 -24 30
-14 0 -28 -5 -31 -10z"/>
<path d="M1180 1286 c0 -24 16 -43 26 -33 8 7 -7 57 -17 57 -5 0 -9 -11 -9
-24z"/>
<path d="M207 1293 c-11 -10 -8 -53 3 -53 6 0 10 14 10 30 0 31 -2 35 -13 23z"/>
<path d="M240 1269 c0 -27 3 -30 28 -27 21 2 28 9 30 31 3 24 0 27 -27 27 -28
0 -31 -3 -31 -31z"/>
<path d="M320 1270 c0 -37 17 -39 30 -4 13 34 13 34 -10 34 -16 0 -20 -7 -20
-30z"/>
<path d="M247 1223 c-4 -3 -7 -17 -7 -30 0 -19 5 -23 30 -23 27 0 30 3 30 30
0 25 -4 30 -23 30 -13 0 -27 -3 -30 -7z"/>
<path d="M790 1205 c0 -21 5 -25 30 -25 25 0 30 4 30 25 0 21 -5 25 -30 25
-25 0 -30 -4 -30 -25z"/>
<path d="M870 1205 c0 -20 5 -25 25 -25 20 0 25 5 25 25 0 20 -5 25 -25 25
-20 0 -25 -5 -25 -25z"/>
<path d="M1067 1210 c3 -11 7 -20 9 -20 2 0 4 9 4 20 0 11 -4 20 -9 20 -5 0
-7 -9 -4 -20z"/>
<path d="M1110 1205 c0 -20 5 -25 25 -25 20 0 25 5 25 25 0 20 -5 25 -25 25
-20 0 -25 -5 -25 -25z"/>
<path d="M1182 1208 c2 -17 11 -24 31 -26 15 -2 27 1 27 7 0 25 -14 41 -37 41
-20 0 -24 -4 -21 -22z"/>
<path d="M187 1213 c-15 -15 -7 -43 13 -43 15 0 20 7 20 25 0 24 -18 34 -33
18z"/>
<path d="M322 1200 c0 -14 2 -19 5 -12 2 6 2 18 0 25 -3 6 -5 1 -5 -13z"/>
<path d="M736 1128 c-9 -35 -8 -38 14 -38 16 0 20 7 20 30 0 36 -25 41 -34 8z"/>
<path d="M790 1120 c0 -27 3 -30 30 -30 27 0 30 3 30 30 0 27 -3 30 -30 30
-27 0 -30 -3 -30 -30z"/>
<path d="M870 1120 c0 -25 4 -30 24 -30 14 0 28 5 31 10 3 6 -1 10 -10 10 -12
0 -15 6 -10 20 5 16 2 20 -14 20 -17 0 -21 -6 -21 -30z"/>
<path d="M170 1110 c0 -25 4 -30 25 -30 21 0 25 5 25 30 0 25 -4 30 -25 30
-21 0 -25 -5 -25 -30z"/>
<path d="M242 1113 c3 -27 8 -29 48 -24 6 0 10 12 10 26 0 21 -5 25 -31 25
-27 0 -30 -3 -27 -27z"/>
<path d="M950 1100 c0 -5 14 -10 30 -10 17 0 30 5 30 10 0 6 -13 10 -30 10
-16 0 -30 -4 -30 -10z"/>
<path d="M1030 1100 c0 -5 11 -10 25 -10 14 0 25 5 25 10 0 6 -11 10 -25 10
-14 0 -25 -4 -25 -10z"/>
<path d="M1110 1100 c0 -5 11 -10 25 -10 14 0 25 5 25 10 0 6 -11 10 -25 10
-14 0 -25 -4 -25 -10z"/>
<path d="M1190 1100 c0 -5 11 -10 25 -10 14 0 25 5 25 10 0 6 -11 10 -25 10
-14 0 -25 -4 -25 -10z"/>
<path d="M1280 1100 c0 -5 11 -10 25 -10 14 0 25 5 25 10 0 6 -11 10 -25 10
-14 0 -25 -4 -25 -10z"/>
<path d="M1350 1100 c0 -5 14 -10 30 -10 17 0 30 5 30 10 0 6 -13 10 -30 10
-16 0 -30 -4 -30 -10z"/>
<path d="M1435 1100 c3 -5 17 -10 31 -10 13 0 24 5 24 10 0 6 -14 10 -31 10
-17 0 -28 -4 -24 -10z"/>
<path d="M1515 1100 c3 -5 17 -10 31 -10 13 0 24 5 24 10 0 6 -14 10 -31 10
-17 0 -28 -4 -24 -10z"/>
<path d="M1590 1100 c0 -5 14 -10 30 -10 17 0 30 5 30 10 0 6 -13 10 -30 10
-16 0 -30 -4 -30 -10z"/>
<path d="M1670 1100 c0 -5 14 -10 30 -10 17 0 30 5 30 10 0 6 -13 10 -30 10
-16 0 -30 -4 -30 -10z"/>
<path d="M1750 1100 c0 -5 14 -10 30 -10 17 0 30 5 30 10 0 6 -13 10 -30 10
-16 0 -30 -4 -30 -10z"/>
<path d="M813 1072 c-17 -2 -23 -10 -23 -28 0 -20 5 -24 30 -24 25 0 30 4 30
24 0 29 -6 33 -37 28z"/>
<path d="M883 1073 c-7 -2 -13 -16 -13 -29 0 -20 5 -24 31 -24 27 0 30 3 27
27 -3 27 -20 37 -45 26z"/>
<path d="M1197 1073 c-4 -3 -7 -17 -7 -30 0 -19 5 -23 28 -23 26 0 28 3 24 30
-4 29 -28 41 -45 23z"/>
<path d="M1517 1073 c-4 -3 -7 -17 -7 -30 0 -19 5 -23 30 -23 27 0 30 3 30 30
0 25 -4 30 -23 30 -13 0 -27 -3 -30 -7z"/>
<path d="M167 1058 c-8 -26 5 -48 29 -48 20 0 24 5 24 30 0 25 -4 30 -24 30
-13 0 -26 -6 -29 -12z"/>
<path d="M247 1063 c-4 -3 -7 -17 -7 -30 0 -19 5 -23 30 -23 27 0 30 3 30 30
0 25 -4 30 -23 30 -13 0 -27 -3 -30 -7z"/>
<path d="M710 1045 c0 -21 5 -25 30 -25 25 0 30 4 30 25 0 21 -5 25 -30 25
-25 0 -30 -4 -30 -25z"/>
<path d="M950 1039 c0 -27 3 -30 28 -27 21 2 28 9 30 31 3 24 0 27 -27 27 -28
0 -31 -3 -31 -31z"/>
<path d="M1030 1042 c0 -26 2 -28 31 -24 24 4 29 9 27 26 -2 15 -11 22 -30 24
-25 3 -28 0 -28 -26z"/>
<path d="M1110 1045 c0 -21 5 -25 30 -25 25 0 30 4 30 25 0 21 -5 25 -30 25
-25 0 -30 -4 -30 -25z"/>
<path d="M1280 1040 c0 -25 4 -30 25 -30 21 0 25 5 25 30 0 25 -4 30 -25 30
-21 0 -25 -5 -25 -30z"/>
<path d="M1354 1054 c3 -9 6 -20 6 -25 0 -5 11 -9 25 -9 20 0 25 5 25 25 0 21
-5 25 -31 25 -24 0 -30 -3 -25 -16z"/>
<path d="M1440 1045 c0 -20 5 -25 25 -25 20 0 25 5 25 25 0 20 -5 25 -25 25
-20 0 -25 -5 -25 -25z"/>
<path d="M1592 1043 c2 -22 9 -29 31 -31 24 -3 27 0 27 27 0 28 -3 31 -31 31
-27 0 -30 -3 -27 -27z"/>
<path d="M1670 1045 c0 -21 5 -25 30 -25 25 0 30 4 30 25 0 21 -5 25 -30 25
-25 0 -30 -4 -30 -25z"/>
<path d="M1750 1045 c0 -21 5 -25 30 -25 25 0 30 4 30 25 0 21 -5 25 -30 25
-25 0 -30 -4 -30 -25z"/>
<path d="M1832 1045 c0 -16 2 -22 5 -12 2 9 2 23 0 30 -3 6 -5 -1 -5 -18z"/>
<path d="M258 982 c-11 -2 -18 -13 -18 -28 0 -20 5 -24 30 -24 25 0 30 4 30
24 0 25 -14 35 -42 28z"/>
<path d="M676 967 c-5 -15 -6 -31 -2 -34 11 -11 18 5 14 34 l-4 28 -8 -28z"/>
<path d="M714 974 c3 -9 6 -22 6 -30 0 -8 10 -14 25 -14 21 0 25 5 25 30 0 27
-3 30 -31 30 -24 0 -30 -3 -25 -16z"/>
<path d="M797 983 c-2 -5 -1 -18 2 -31 6 -21 7 -22 29 -7 30 21 29 45 -2 45
-14 0 -27 -3 -29 -7z"/>
<path d="M870 975 c0 -10 10 -15 30 -15 20 0 30 5 30 15 0 10 -10 15 -30 15
-20 0 -30 -5 -30 -15z"/>
<path d="M950 975 c0 -10 10 -15 30 -15 20 0 30 5 30 15 0 10 -10 15 -30 15
-20 0 -30 -5 -30 -15z"/>
<path d="M1030 975 c0 -10 10 -15 30 -15 20 0 30 5 30 15 0 10 -10 15 -30 15
-20 0 -30 -5 -30 -15z"/>
<path d="M1110 975 c0 -10 10 -15 30 -15 20 0 30 5 30 15 0 10 -10 15 -30 15
-20 0 -30 -5 -30 -15z"/>
<path d="M1190 975 c0 -10 10 -15 30 -15 20 0 30 5 30 15 0 10 -10 15 -30 15
-20 0 -30 -5 -30 -15z"/>
<path d="M1270 975 c0 -10 10 -15 30 -15 20 0 30 5 30 15 0 10 -10 15 -30 15
-20 0 -30 -5 -30 -15z"/>
<path d="M1350 975 c0 -10 10 -15 30 -15 20 0 30 5 30 15 0 10 -10 15 -30 15
-20 0 -30 -5 -30 -15z"/>
<path d="M1430 975 c0 -10 10 -15 30 -15 20 0 30 5 30 15 0 10 -10 15 -30 15
-20 0 -30 -5 -30 -15z"/>
<path d="M1510 975 c0 -10 10 -15 30 -15 20 0 30 5 30 15 0 10 -10 15 -30 15
-20 0 -30 -5 -30 -15z"/>
<path d="M1590 975 c0 -9 9 -15 25 -15 16 0 25 6 25 15 0 9 -9 15 -25 15 -16
0 -25 -6 -25 -15z"/>
<path d="M1670 979 c0 -20 21 -49 35 -49 10 0 15 10 15 30 0 25 -4 30 -25 30
-14 0 -25 -5 -25 -11z"/>
<path d="M1750 961 c0 -22 4 -28 18 -26 9 2 20 4 25 4 4 1 7 12 7 26 0 20 -5
25 -25 25 -21 0 -25 -5 -25 -29z"/>
<path d="M170 955 c0 -20 5 -25 25 -25 20 0 25 5 25 25 0 20 -5 25 -25 25 -20
0 -25 -5 -25 -25z"/>
<path d="M727 913 c-4 -3 -7 -17 -7 -30 0 -18 5 -23 25 -23 21 0 25 5 25 30 0
22 -5 30 -18 30 -10 0 -22 -3 -25 -7z"/>
<path d="M801 893 c0 -25 1 -26 9 -8 12 27 12 35 0 35 -5 0 -10 -12 -9 -27z"/>
<path d="M1681 901 c-17 -32 -13 -41 20 -41 27 0 30 3 27 27 -4 34 -32 42 -47
14z"/>
<path d="M1750 891 c0 -28 3 -31 31 -31 27 0 30 3 27 28 -2 21 -9 28 -30 30
-25 3 -28 0 -28 -27z"/>
<path d="M178 880 c3 -21 10 -30 23 -30 14 0 19 7 19 30 0 25 -4 30 -23 30
-20 0 -23 -4 -19 -30z"/>
<path d="M240 880 c0 -27 3 -30 30 -30 27 0 30 3 30 30 0 27 -3 30 -30 30 -27
0 -30 -3 -30 -30z"/>
<path d="M646 894 c-10 -27 -7 -34 19 -34 20 0 25 5 25 25 0 29 -34 36 -44 9z"/>
<path d="M320 875 c0 -14 4 -25 9 -25 4 0 6 11 3 25 -2 14 -6 25 -8 25 -2 0
-4 -11 -4 -25z"/>
<path d="M240 811 c0 -28 3 -31 31 -31 27 0 30 3 27 28 -2 21 -9 28 -30 30
-25 3 -28 0 -28 -27z"/>
<path d="M640 810 c0 -28 3 -31 28 -28 21 2 27 8 27 28 0 20 -6 26 -27 28 -25
3 -28 0 -28 -28z"/>
<path d="M720 809 c0 -26 3 -30 23 -27 16 2 23 11 25 31 3 23 0 27 -22 27 -22
0 -26 -4 -26 -31z"/>
<path d="M1670 809 c0 -27 3 -30 28 -27 21 2 28 9 30 31 3 24 0 27 -27 27 -28
0 -31 -3 -31 -31z"/>
<path d="M1750 814 c0 -22 4 -25 28 -22 19 2 28 9 30 26 3 19 -1 22 -27 22
-27 0 -31 -4 -31 -26z"/>
<path d="M190 821 c0 -17 12 -41 21 -41 5 0 9 11 9 25 0 16 -6 25 -15 25 -8 0
-15 -4 -15 -9z"/>
<path d="M320 802 c0 -21 5 -28 20 -28 23 0 25 9 10 37 -15 28 -30 23 -30 -9z"/>
<path d="M720 740 c0 -34 14 -39 30 -11 15 29 12 41 -10 41 -16 0 -20 -7 -20
-30z"/>
<path d="M1670 741 c0 -28 3 -31 31 -31 27 0 30 3 27 28 -2 21 -9 28 -30 30
-25 3 -28 0 -28 -27z"/>
<path d="M1750 740 c0 -20 5 -30 15 -30 8 0 15 3 15 8 0 4 3 17 6 30 5 18 2
22 -15 22 -17 0 -21 -6 -21 -30z"/>
<path d="M240 730 c0 -27 3 -30 30 -30 27 0 30 3 30 30 0 27 -3 30 -30 30 -27
0 -30 -3 -30 -30z"/>
<path d="M320 731 c0 -28 3 -31 31 -31 27 0 30 3 27 28 -2 21 -9 28 -30 30
-25 3 -28 0 -28 -27z"/>
<path d="M586 734 c-8 -31 -3 -39 19 -31 19 8 20 57 1 57 -8 0 -17 -12 -20
-26z"/>
<path d="M640 735 c0 -21 5 -25 30 -25 25 0 30 4 30 25 0 21 -5 25 -30 25 -25
0 -30 -4 -30 -25z"/>
<path d="M1622 735 c-10 -22 -9 -25 8 -25 15 0 20 7 20 25 0 14 -4 25 -8 25
-5 0 -14 -11 -20 -25z"/>
<path d="M250 675 c0 -2 5 -16 12 -30 16 -35 38 -32 38 5 0 25 -4 30 -25 30
-14 0 -25 -2 -25 -5z"/>
<path d="M560 666 c0 -11 10 -16 31 -16 38 0 35 24 -4 28 -19 2 -27 -1 -27
-12z"/>
<path d="M640 665 c0 -10 10 -15 30 -15 20 0 30 5 30 15 0 10 -10 15 -30 15
-20 0 -30 -5 -30 -15z"/>
<path d="M1592 653 c2 -22 8 -28 28 -28 20 0 26 6 28 28 3 24 0 27 -28 27 -28
0 -31 -3 -28 -27z"/>
<path d="M1670 656 c0 -26 14 -36 43 -28 10 3 17 14 17 28 0 20 -5 24 -30 24
-25 0 -30 -4 -30 -24z"/>
<path d="M320 645 c0 -21 5 -25 30 -25 25 0 30 4 30 25 0 21 -5 25 -30 25 -25
0 -30 -4 -30 -25z"/>
<path d="M400 645 c0 -20 5 -25 25 -25 25 0 25 1 9 25 -9 14 -20 25 -25 25 -5
0 -9 -11 -9 -25z"/>
<path d="M1526 591 c-22 -24 -13 -41 20 -41 20 0 24 5 24 30 0 35 -18 39 -44
11z"/>
<path d="M1597 603 c-4 -3 -7 -17 -7 -30 0 -19 5 -23 30 -23 27 0 30 3 30 30
0 25 -4 30 -23 30 -13 0 -27 -3 -30 -7z"/>
<path d="M1670 580 c0 -16 4 -30 8 -30 4 0 16 14 25 30 l18 30 -25 0 c-22 0
-26 -4 -26 -30z"/>
<path d="M320 570 c0 -27 3 -30 30 -30 27 0 30 3 30 30 0 27 -3 30 -30 30 -27
0 -30 -3 -30 -30z"/>
<path d="M400 570 c0 -27 3 -30 30 -30 27 0 30 3 30 30 0 27 -3 30 -30 30 -27
0 -30 -3 -30 -30z"/>
<path d="M480 560 c0 -14 7 -20 22 -20 20 0 21 1 3 20 -10 11 -20 20 -22 20
-1 0 -3 -9 -3 -20z"/>
<path d="M1447 512 c-25 -28 -21 -42 14 -42 27 0 30 3 27 27 -4 33 -19 39 -41
15z"/>
<path d="M1510 501 c0 -28 3 -31 31 -31 27 0 30 3 27 28 -2 21 -9 28 -30 30
-25 3 -28 0 -28 -27z"/>
<path d="M350 511 c0 -6 5 -13 10 -16 6 -3 10 1 10 9 0 9 -4 16 -10 16 -5 0
-10 -4 -10 -9z"/>
<path d="M400 490 c0 -25 4 -30 25 -30 21 0 25 5 25 30 0 25 -4 30 -25 30 -21
0 -25 -5 -25 -30z"/>
<path d="M480 490 c0 -25 4 -30 25 -30 21 0 25 5 25 30 0 25 -4 30 -25 30 -21
0 -25 -5 -25 -30z"/>
<path d="M1590 495 c0 -27 18 -33 38 -13 20 20 14 38 -13 38 -20 0 -25 -5 -25
-25z"/>
<path d="M560 480 c0 -15 7 -20 27 -20 25 0 26 0 8 20 -10 11 -22 20 -27 20
-4 0 -8 -9 -8 -20z"/>
<path d="M640 421 c0 -27 4 -31 26 -31 31 0 30 26 -3 48 -22 14 -23 13 -23
-17z"/>
<path d="M1350 420 c0 -27 3 -30 30 -30 27 0 30 3 30 30 0 27 -3 30 -30 30
-27 0 -30 -3 -30 -30z"/>
<path d="M1430 420 c0 -27 3 -30 30 -30 27 0 30 3 30 30 0 27 -3 30 -30 30
-27 0 -30 -3 -30 -30z"/>
<path d="M1510 420 c0 -34 18 -39 43 -12 25 28 21 42 -13 42 -27 0 -30 -3 -30
-30z"/>
<path d="M420 436 c0 -2 7 -9 15 -16 12 -10 15 -10 15 4 0 9 -7 16 -15 16 -8
0 -15 -2 -15 -4z"/>
<path d="M480 409 c0 -24 3 -30 16 -25 9 3 22 6 30 6 8 0 14 10 14 25 0 21 -5
25 -30 25 -27 0 -30 -3 -30 -31z"/>
<path d="M560 415 c0 -20 5 -25 25 -25 20 0 25 5 25 25 0 20 -5 25 -25 25 -20
0 -25 -5 -25 -25z"/>
<path d="M1295 412 l-30 -17 28 -3 c33 -4 40 0 35 21 -3 13 -7 13 -33 -1z"/>
<path d="M720 350 c0 -25 4 -30 25 -30 21 0 25 5 25 30 0 25 -4 30 -25 30 -21
0 -25 -5 -25 -30z"/>
<path d="M800 350 c0 -26 4 -30 26 -30 20 0 25 4 22 21 -2 12 -13 26 -25 30
-21 7 -23 5 -23 -21z"/>
<path d="M1197 373 c-4 -3 -7 -17 -7 -30 0 -19 5 -23 30 -23 27 0 30 3 30 30
0 25 -4 30 -23 30 -13 0 -27 -3 -30 -7z"/>
<path d="M1357 374 c-4 -4 -7 -18 -7 -31 0 -19 5 -23 31 -23 27 0 30 3 27 28
-3 26 -34 43 -51 26z"/>
<path d="M1430 349 l0 -30 30 18 c17 9 30 23 30 30 0 8 -12 13 -30 13 -27 0
-30 -3 -30 -31z"/>
<path d="M500 365 c0 -2 9 -9 20 -15 16 -9 20 -8 20 5 0 8 -9 15 -20 15 -11 0
-20 -2 -20 -5z"/>
<path d="M562 343 c3 -29 32 -43 50 -25 18 18 -1 52 -28 52 -22 0 -25 -4 -22
-27z"/>
<path d="M640 345 c0 -21 5 -25 30 -25 25 0 30 4 30 25 0 21 -5 25 -30 25 -25
0 -30 -4 -30 -25z"/>
<path d="M1145 363 c-41 -11 -41 -43 1 -43 19 0 24 5 24 25 0 14 -1 24 -2 24
-2 -1 -12 -4 -23 -6z"/>
<path d="M1270 345 c0 -21 5 -25 30 -25 25 0 30 4 30 25 0 21 -5 25 -30 25
-25 0 -30 -4 -30 -25z"/>
<path d="M880 339 c0 -14 7 -19 25 -19 15 0 25 6 25 14 0 7 -11 16 -25 18 -19
4 -25 1 -25 -13z"/>
<path d="M960 335 c0 -9 9 -15 25 -15 16 0 25 6 25 15 0 9 -9 15 -25 15 -16 0
-25 -6 -25 -15z"/>
<path d="M1037 343 c-15 -14 -6 -23 23 -23 20 0 30 5 30 15 0 15 -40 21 -53 8z"/>
<path d="M640 290 c0 -10 32 -30 49 -30 6 0 11 9 11 20 0 16 -7 20 -30 20 -16
0 -30 -4 -30 -10z"/>
<path d="M720 270 c0 -28 3 -31 28 -28 21 2 27 8 27 28 0 20 -6 26 -27 28 -25
3 -28 0 -28 -28z"/>
<path d="M800 270 c0 -28 3 -31 28 -28 21 2 27 8 27 28 0 20 -6 26 -27 28 -25
3 -28 0 -28 -28z"/>
<path d="M880 271 c0 -22 4 -28 18 -26 9 2 20 4 25 4 4 1 7 12 7 26 0 20 -5
25 -25 25 -21 0 -25 -5 -25 -29z"/>
<path d="M960 270 c0 -25 4 -30 25 -30 21 0 25 5 25 30 0 25 -4 30 -25 30 -21
0 -25 -5 -25 -30z"/>
<path d="M1040 270 c0 -25 4 -30 25 -30 21 0 25 5 25 30 0 25 -4 30 -25 30
-21 0 -25 -5 -25 -30z"/>
<path d="M1120 270 c0 -25 4 -30 25 -30 21 0 25 5 25 30 0 25 -4 30 -25 30
-21 0 -25 -5 -25 -30z"/>
<path d="M1192 278 c4 -29 15 -37 39 -31 12 3 19 14 19 29 0 20 -5 24 -31 24
-26 0 -30 -3 -27 -22z"/>
<path d="M1270 275 c0 -15 6 -25 14 -25 28 0 46 12 46 31 0 14 -7 19 -30 19
-25 0 -30 -4 -30 -25z"/>
<path d="M1350 290 c0 -13 11 -13 30 0 12 8 11 10 -7 10 -13 0 -23 -4 -23 -10z"/>
<path d="M838 213 c7 -3 16 -2 19 1 4 3 -2 6 -13 5 -11 0 -14 -3 -6 -6z"/>
<path d="M880 210 c0 -5 14 -10 30 -10 17 0 30 5 30 10 0 6 -13 10 -30 10 -16
0 -30 -4 -30 -10z"/>
<path d="M960 210 c0 -5 11 -10 25 -10 14 0 25 5 25 10 0 6 -11 10 -25 10 -14
0 -25 -4 -25 -10z"/>
<path d="M1040 210 c0 -5 11 -10 25 -10 14 0 25 5 25 10 0 6 -11 10 -25 10
-14 0 -25 -4 -25 -10z"/>
<path d="M1133 213 c9 -2 23 -2 30 0 6 3 -1 5 -18 5 -16 0 -22 -2 -12 -5z"/>
</g>
</svg>
